<?xml version="1.0" encoding="UTF-8"?>
<svg width="1440" height="1024" viewBox="0 0 1440 1024" fill="none" xmlns="http://www.w3.org/2000/svg">
  <path d="M-114 396C-114 396 142.5 256 400 256C657.5 256 914 396 914 396C914 396 1170.5 536 1428 536C1685.5 536 1942 396 1942 396" stroke="#E0E7FF" stroke-width="2"/>
  <path d="M-114 456C-114 456 142.5 316 400 316C657.5 316 914 456 914 456C914 456 1170.5 596 1428 596C1685.5 596 1942 456 1942 456" stroke="#E0E7FF" stroke-width="2"/>
  <path d="M-114 516C-114 516 142.5 376 400 376C657.5 376 914 516 914 516C914 516 1170.5 656 1428 656C1685.5 656 1942 516 1942 516" stroke="#E0E7FF" stroke-width="2"/>
</svg>
